# xmcd CD database file
#
# Track frame offsets:
#	150
#	14695
#	28935
#	42447
#	59632
#	75225
#	90042
#	101865
#	121287
#	134035
#	153200
#	167242
#	180617
#	195727
#	213035
#	225867
#	240062
#	252197
#	267370
#	281662
#
# Disc length: 3957 seconds
#
# Revision: 0
# Processed by: cddbd v1.5.2PL0 Copyright (c) Steve Scherf et al.
# Submitted via: CDex 1.51
#
DISCID=070f7314
DTITLE=Don Williams - The Don Williams Collection
DYEAR=1999
DGENRE=Country
TTITLE0=Another place, another time
TTITLE1=Desperately
TTITLE2=Running out of reasons to run
TTITLE3=Old coyote town
TTITLE4=Then it's love
TTITLE5=We've got a good fire goin'
TTITLE6=We got love
TTITLE7=Till I can't take anymore
TTITLE8=Shot full of love
TTITLE9=Senorita
TTITLE10=Come from the heart
TTITLE11=Looking back
TTITLE12=I wouldn't be a man
TTITLE13=Heartbeat in the darkness
TTITLE14=You love me through it all
TTITLE15=The light in your eyes
TTITLE16=It's about time
TTITLE17=Easy touch
TTITLE18=I'll never be in love again
TTITLE19=Send her roses
EXTD=YEAR: 1999
EXTT0=
EXTT1=
EXTT2=
EXTT3=
EXTT4=
EXTT5=
EXTT6=
EXTT7=
EXTT8=
EXTT9=
EXTT10=
EXTT11=
EXTT12=
EXTT13=
EXTT14=
EXTT15=
EXTT16=
EXTT17=
EXTT18=
EXTT19=
PLAYORDER=
